<?xml version="1.0" encoding="UTF-8"?>
<!DOCTYPE svg PUBLIC "-//W3C//DTD SVG 1.1//EN" "http://www.w3.org/Graphics/SVG/1.1/DTD/svg11.dtd">
<svg xmlns="http://www.w3.org/2000/svg" version="1.1" width="434px" height="435px" style="shape-rendering:geometricPrecision; text-rendering:geometricPrecision; image-rendering:optimizeQuality; fill-rule:evenodd; clip-rule:evenodd" xmlns:xlink="http://www.w3.org/1999/xlink">
<g><path style="opacity:1" fill="#000000" d="M -0.5,-0.5 C 144.167,-0.5 288.833,-0.5 433.5,-0.5C 433.5,144.5 433.5,289.5 433.5,434.5C 288.833,434.5 144.167,434.5 -0.5,434.5C -0.5,289.5 -0.5,144.5 -0.5,-0.5 Z"/></g>
<g><path style="opacity:1" fill="#763c3b" d="M 166.5,132.5 C 167.376,132.369 168.043,132.702 168.5,133.5C 166.323,140.357 164.99,147.357 164.5,154.5C 157.825,154.666 151.158,154.5 144.5,154C 142.792,151.957 140.792,150.29 138.5,149C 143.341,146.079 148.341,143.412 153.5,141C 154.09,139.491 154.756,137.991 155.5,136.5C 159.537,135.907 163.204,134.574 166.5,132.5 Z"/></g>
<g><path style="opacity:1" fill="#7e403f" d="M 179.5,144.5 C 180.794,145.29 181.961,146.29 183,147.5C 185.582,152.333 188.415,157 191.5,161.5C 198.955,164.727 206.288,168.227 213.5,172C 238.173,172.167 262.84,172.667 287.5,173.5C 288.963,175.729 289.797,178.063 290,180.5C 285.047,175.439 279.88,175.272 274.5,180C 275.903,185.52 277.236,191.02 278.5,196.5C 280.806,196.993 283.139,197.326 285.5,197.5C 285.5,203.833 285.5,210.167 285.5,216.5C 281.167,216.5 276.833,216.5 272.5,216.5C 272.5,214.5 272.5,212.5 272.5,210.5C 274.5,210.5 276.5,210.5 278.5,210.5C 278.5,208.167 278.5,205.833 278.5,203.5C 264.269,201.621 250.103,199.288 236,196.5C 222.175,199.581 208.342,202.581 194.5,205.5C 194.5,209.167 194.5,212.833 194.5,216.5C 190.167,216.5 185.833,216.5 181.5,216.5C 181.5,214.5 181.5,212.5 181.5,210.5C 183.5,210.5 185.5,210.5 187.5,210.5C 187.817,207.428 187.484,204.428 186.5,201.5C 181.194,198.028 176.028,194.361 171,190.5C 169.459,181.006 167.959,171.506 166.5,162C 166.559,160.564 166.892,159.231 167.5,158C 174.258,155.822 178.258,151.322 179.5,144.5 Z"/></g>
<g><path style="opacity:1" fill="#773c3b" d="M 176.5,196.5 C 179.021,200.354 181.688,204.188 184.5,208C 182.866,208.494 181.199,208.66 179.5,208.5C 179.5,211.167 179.5,213.833 179.5,216.5C 176.5,216.5 173.5,216.5 170.5,216.5C 170.5,214.5 170.5,212.5 170.5,210.5C 172.5,210.5 174.5,210.5 176.5,210.5C 176.5,205.833 176.5,201.167 176.5,196.5 Z"/></g>
<g><path style="opacity:1" fill="#7b3e3d" d="M 267.5,203.5 C 269.544,204.031 271.211,205.198 272.5,207C 270.656,209.804 269.989,212.97 270.5,216.5C 267.833,216.5 265.167,216.5 262.5,216.5C 262.5,214.5 262.5,212.5 262.5,210.5C 264.167,210.5 265.833,210.5 267.5,210.5C 267.5,208.167 267.5,205.833 267.5,203.5 Z"/></g>
<g><path style="opacity:1" fill="#d0d3cb" d="M 172.5,242.5 C 176.846,242.334 181.179,242.501 185.5,243C 192.167,247.333 192.167,251.667 185.5,256C 181.848,256.499 178.182,256.665 174.5,256.5C 174.813,259.247 174.48,261.914 173.5,264.5C 172.503,257.197 172.169,249.863 172.5,242.5 Z"/></g>
<g><path style="opacity:1" fill="#d8ceb6" d="M 195.5,242.5 C 199.514,242.334 203.514,242.501 207.5,243C 212.218,244.449 213.718,247.615 212,252.5C 211.19,254.306 210.024,255.806 208.5,257C 209.701,259.234 211.035,261.401 212.5,263.5C 212.167,263.833 211.833,264.167 211.5,264.5C 209.588,262.343 207.921,260.009 206.5,257.5C 203.572,256.516 200.572,256.183 197.5,256.5C 197.813,259.247 197.48,261.914 196.5,264.5C 195.503,257.197 195.169,249.863 195.5,242.5 Z"/></g>
<g><path style="opacity:1" fill="#d3cfca" d="M 327.5,241.5 C 331.394,241.11 335.06,241.777 338.5,243.5C 338.333,243.833 338.167,244.167 338,244.5C 334.272,242.138 330.605,242.138 327,244.5C 326.192,246.579 326.359,248.579 327.5,250.5C 331.591,251.693 335.425,253.359 339,255.5C 339.64,263.83 335.807,266.663 327.5,264C 325.998,263.417 324.665,262.584 323.5,261.5C 323.833,261.167 324.167,260.833 324.5,260.5C 328.411,264.049 332.578,264.382 337,261.5C 337.808,259.421 337.641,257.421 336.5,255.5C 332.325,254.505 328.491,252.839 325,250.5C 324.052,246.903 324.885,243.903 327.5,241.5 Z"/></g>
<g><path style="opacity:1" fill="#14090e" d="M 174.5,243.5 C 177.85,243.335 181.183,243.502 184.5,244C 188.994,246.467 189.66,249.8 186.5,254C 182.582,255.156 178.582,255.656 174.5,255.5C 174.5,251.5 174.5,247.5 174.5,243.5 Z"/></g>
<g><path style="opacity:1" fill="#010004" d="M 197.5,243.5 C 201.273,243.263 204.94,243.763 208.5,245C 211.167,248 211.167,251 208.5,254C 204.94,255.237 201.273,255.737 197.5,255.5C 197.5,251.5 197.5,247.5 197.5,243.5 Z"/></g>
<g><path style="opacity:1" fill="#e6e1c3" d="M 242.5,243.5 C 245.625,242.521 248.958,242.187 252.5,242.5C 252.666,249.175 252.5,255.842 252,262.5C 250.701,263.98 249.034,264.646 247,264.5C 243.543,264.978 241.876,263.645 242,260.5C 244.818,264.025 247.651,264.192 250.5,261C 251.434,255.215 251.768,249.382 251.5,243.5C 248.5,243.5 245.5,243.5 242.5,243.5 Z"/></g>
<g><path style="opacity:1" fill="#d2dcd3" d="M 277.5,243.5 C 289.963,242.291 293.297,242.291 287.5,243.5C 286.833,271.5 286.167,271.5 285.5,243.5C 282.833,243.5 280.167,243.5 277.5,243.5 Z"/></g>
<g><path style="opacity:1" fill="#ccc5bc" d="M 223.5,241.5 C 237.696,240.905 242.362,247.238 237.5,260.5C 231.915,265.212 225.915,265.712 219.5,262C 216.58,257.632 215.747,252.799 217,247.5C 218.872,245.153 221.039,243.153 223.5,241.5 Z"/></g>
<g><path style="opacity:1" fill="#040106" d="M 226.5,242.5 C 236.217,243.577 239.717,248.911 237,258.5C 231.604,264.533 225.937,264.866 220,259.5C 216.363,251.341 218.53,245.674 226.5,242.5 Z"/></g>
<g><path style="opacity:1" fill="#d3bfa0" d="M 96.5,246.5 C 95.0755,244.969 94.4088,245.302 94.5,247.5C 94.8288,253.206 94.4954,258.872 93.5,264.5C 92.1667,257.167 92.1667,249.833 93.5,242.5C 95.2882,243.283 96.2882,244.616 96.5,246.5 Z"/></g>
<g><path style="opacity:1" fill="#b5c0c5" d="M 94.5,247.5 C 94.4088,245.302 95.0755,244.969 96.5,246.5C 99.4921,250.476 101.992,254.809 104,259.5C 106.999,253.498 110.499,247.832 114.5,242.5C 115.833,249.833 115.833,257.167 114.5,264.5C 113.67,258.862 113.17,253.196 113,247.5C 109.977,252.029 107.144,256.696 104.5,261.5C 101.157,256.804 97.8238,252.137 94.5,247.5 Z"/></g>
<g><path style="opacity:1" fill="#c9cbcb" d="M 124.5,241.5 C 128.722,241.078 132.722,241.745 136.5,243.5C 136.167,243.833 135.833,244.167 135.5,244.5C 131.569,242.205 127.736,242.205 124,244.5C 123.104,247.025 123.604,249.192 125.5,251C 129.402,252.02 133.068,253.52 136.5,255.5C 138.421,259.419 137.421,262.253 133.5,264C 130.5,264.667 127.5,264.667 124.5,264C 122.385,263.576 121.552,262.409 122,260.5C 125.587,263.373 129.42,263.873 133.5,262C 135.602,260.267 135.935,258.267 134.5,256C 130.116,254.543 125.949,252.71 122,250.5C 120.927,246.9 121.76,243.9 124.5,241.5 Z"/></g>
<g><path style="opacity:1" fill="#f9fbec" d="M 260.5,242.5 C 265.511,242.334 270.511,242.501 275.5,243C 270.845,243.499 266.179,243.666 261.5,243.5C 261.5,246.5 261.5,249.5 261.5,252.5C 278.833,252.833 278.833,253.167 261.5,253.5C 261.5,256.833 261.5,260.167 261.5,263.5C 266.179,263.334 270.845,263.501 275.5,264C 270.511,264.499 265.511,264.666 260.5,264.5C 260.5,257.167 260.5,249.833 260.5,242.5 Z"/></g>
<g><path style="opacity:1" fill="#d0bda7" d="M 148.5,242.5 C 149.5,242.5 150.5,242.5 151.5,242.5C 153.766,249.037 156.6,255.371 160,261.5C 160.749,262.635 160.583,263.635 159.5,264.5C 158.123,262.711 157.123,260.711 156.5,258.5C 152.167,257.167 147.833,257.167 143.5,258.5C 142.667,260.167 141.833,261.833 141,263.5C 140.107,264.711 139.274,264.711 138.5,263.5C 141.254,258.992 143.754,254.326 146,249.5C 146.429,251.669 145.929,253.669 144.5,255.5C 148.122,256.659 151.789,256.825 155.5,256C 153.592,252.104 151.592,248.271 149.5,244.5C 148.749,245.376 148.249,246.376 148,247.5C 147.36,245.735 147.527,244.068 148.5,242.5 Z"/></g>
<g><path style="opacity:1" fill="#cfccc2" d="M 304.5,241.5 C 316.319,240.485 321.486,245.818 320,257.5C 315.021,264.99 308.521,266.49 300.5,262C 299.299,261.097 298.465,259.931 298,258.5C 297.333,254.833 297.333,251.167 298,247.5C 299.494,244.686 301.66,242.686 304.5,241.5 Z"/></g>
<g><path style="opacity:1" fill="#090508" d="M 305.5,242.5 C 316.551,242.389 320.717,247.722 318,258.5C 313.915,262.976 309.082,264.143 303.5,262C 296.524,254.713 297.191,248.213 305.5,242.5 Z"/></g>
</svg>
